<svg version="1.1" xmlns="http://www.w3.org/2000/svg" style="display: block;" viewBox="0 0 2048 2048" width="1024" height="1024" preserveAspectRatio="none">
<path transform="translate(0,0)" fill="rgb(255,255,255)" d="M 0 0 L 2048 0 L 2048 2048 L 0 2048 L 0 0 z"/>
<path transform="translate(0,0)" fill="rgb(62,68,73)" d="M 810.058 1102.88 C 831.259 1048.59 829.838 988.078 806.111 934.847 C 782.632 880.764 738.472 838.335 683.493 817.037 C 628.524 795.909 567.406 797.536 513.639 821.558 C 460.063 845.8 418.243 890.238 397.295 945.185 C 376.31 1000.29 378.184 1061.49 402.504 1115.21 C 426.629 1168.05 470.807 1209.11 525.273 1229.32 C 581.421 1250.31 643.672 1247.7 697.868 1222.09 C 716.029 1213.7 729.449 1201.55 746.621 1193.09 C 749.289 1191.78 755.004 1192.34 757.978 1193.34 C 763.028 1195.04 767.137 1198.78 769.309 1203.64 C 771.226 1207.89 771.355 1212.73 769.667 1217.08 C 763.301 1233.23 712.913 1257.74 696.74 1264.05 C 632.311 1288.8 560.684 1286.91 497.653 1258.79 C 435.084 1231.32 386.072 1180.01 361.507 1116.25 C 337.416 1053.58 339.922 978.525 367.454 917.336 C 395.664 854.106 447.984 804.78 512.766 780.34 C 577.507 756.465 649.047 759.046 711.899 787.525 C 773.985 816.331 822.308 868.322 846.501 932.346 C 870.557 997.28 867.124 1060.94 842.53 1124.83 C 831.357 1117.65 821.994 1110.23 810.058 1102.88 z"/>
<path transform="translate(0,0)" fill="rgb(62,68,73)" d="M 531.409 967.253 C 541.221 966.591 550.447 968.06 559.581 971.864 C 603.649 990.212 646.57 1028.11 624.925 1080.02 C 615.413 1102.84 599.92 1115.71 577.635 1125.22 C 532.53 1138.95 487.183 1117.22 480.669 1068.98 C 475.336 1029.48 484.058 974.192 531.409 967.253 z"/>
<path transform="translate(0,0)" fill="rgb(62,68,73)" d="M 953.152 950.369 C 982.057 951.221 1010.98 949.18 1039.68 952.25 C 1076.39 956.177 1096.15 994.489 1082.35 1027.17 C 1077.38 1039.13 1067.78 1048.55 1055.74 1053.29 C 1065.83 1069.82 1079.11 1089.45 1090.03 1105.41 L 1070.75 1105.58 L 1052.04 1105.47 L 1023.44 1059.33 C 1011.47 1059.43 999.049 1059.14 987.043 1059.01 L 987.042 1105.2 L 952.965 1105.28 L 953.152 950.369 z"/>
<path transform="translate(0,0)" fill="rgb(255,255,255)" d="M 986.946 978.546 C 1007.84 978.668 1049.6 972.413 1051.99 1001.47 C 1052.84 1011.77 1051.54 1017.36 1044.95 1025.22 C 1030.03 1036.17 1006.03 1033.09 987.114 1032.81 L 986.946 978.546 z"/>
<path transform="translate(0,0)" fill="rgb(62,68,73)" d="M 538.859 899.046 C 555.914 898.014 578.254 898.712 595.683 898.526 C 610.463 898.368 634.093 897.836 648.019 899.143 C 655.117 899.809 662.12 901.252 668.903 903.447 C 689.919 910.635 707.235 925.85 717.065 945.766 C 739.306 990.73 720.684 1044.61 675.408 1066.47 C 687.535 1084.38 702.957 1104.83 712.662 1123.73 C 721.665 1141.27 703.382 1156.11 684.595 1146.96 C 679.459 1141.62 672.511 1130.27 668.237 1123.91 C 658.524 1109.44 649.289 1094.78 639.191 1080.54 C 645.355 1065.57 646.835 1050.93 642.71 1035.29 C 654.111 1033.1 665.492 1029.78 673.536 1021.13 C 703.94 988.424 683.735 937.606 638.083 937.089 C 614.088 936.817 590.786 936.935 567.275 937.01 L 567.149 958.075 C 551.075 952.105 545.469 951.217 528.353 951.553 C 528.714 938.855 526.937 924.859 528.714 912.55 C 529.733 905.493 533.234 902.667 538.859 899.046 z"/>
<path transform="translate(0,0)" fill="rgb(62,68,73)" d="M 1163.44 985.383 C 1196.71 983.571 1223.2 1003.76 1226.86 1037.59 C 1227.54 1043.9 1227.18 1050.16 1226.96 1056.48 C 1196.74 1056.67 1166.52 1056.6 1136.3 1056.27 C 1147.06 1086.5 1178.69 1085.2 1201.69 1069.67 L 1205.43 1073.73 L 1218.75 1086.44 C 1205.48 1098.63 1197.3 1103.63 1178.26 1106.38 C 1119.4 1114.85 1081.75 1054.32 1117.53 1006.58 C 1127.68 993.03 1146.09 986.832 1163.44 985.383 z"/>
<path transform="translate(0,0)" fill="rgb(255,255,255)" d="M 1159.57 1012.13 C 1181.95 1010.07 1191.27 1015.85 1197.55 1037.25 L 1175.5 1037.1 L 1136.4 1036.93 C 1140.68 1021.88 1145.16 1017.15 1159.57 1012.13 z"/>
<path transform="translate(0,0)" fill="rgb(62,68,73)" d="M 1645.2 986.271 C 1682.9 981.91 1701.39 1003.17 1701.53 1039.4 C 1701.62 1061.23 1701.75 1083.43 1701.76 1105.29 L 1668.88 1105.4 C 1669 1076.73 1680.84 992.895 1627.19 1018.63 C 1609.39 1032.87 1614.04 1051.66 1613.64 1071.87 C 1613.42 1082.91 1613.83 1094.21 1613.93 1105.27 L 1581.08 1105.34 C 1581.63 1066.22 1581.1 1026.11 1581 986.926 L 1611.82 986.961 L 1612.83 1003.96 C 1623.29 992.423 1630.24 988.89 1645.2 986.271 z"/>
<path transform="translate(0,0)" fill="rgb(62,68,73)" d="M 1423.99 986.907 L 1456.88 986.783 L 1456.96 1031.5 L 1456.96 1105.33 L 1426.09 1105.44 L 1426.06 1087.74 C 1424.94 1089.07 1423.79 1090.37 1422.62 1091.65 C 1405.26 1110.6 1371.46 1113.07 1352.22 1095.2 C 1336.02 1080.15 1338.6 1054.44 1338.62 1034.32 C 1338.63 1018.79 1338.74 1002.74 1338.75 986.953 L 1371.05 986.811 C 1371.35 1006.37 1366.62 1057.64 1377.8 1071.21 C 1381.86 1076.13 1387.54 1078.52 1393.84 1078.77 C 1401.41 1079.07 1408.83 1076.78 1414.23 1071.35 C 1418.43 1067.11 1421.08 1061.54 1422.51 1055.8 C 1426.63 1039.31 1424.1 1005.06 1423.99 986.907 z"/>
<path transform="translate(0,0)" fill="rgb(62,68,73)" d="M 1252.77 957.916 C 1263.67 957.871 1274.58 957.765 1285.47 957.598 L 1285.83 990.14 L 1316.66 990.133 L 1316.67 1013.23 L 1285.53 1013.24 C 1285.54 1025.74 1285.6 1039.49 1285.2 1051.91 C 1284.43 1076 1291.35 1087.96 1315.95 1075.49 L 1319.81 1088.22 L 1323.64 1098.97 C 1306.13 1107.64 1280.15 1111.4 1264.17 1097.15 C 1250.48 1084.94 1252.78 1060.96 1252.86 1044.02 C 1252.91 1034.06 1252.85 1024.1 1252.67 1014.14 L 1233.49 1014.14 L 1233.54 990.594 L 1252.3 990.248 L 1252.77 957.916 z"/>
<path transform="translate(0,0)" fill="rgb(62,68,73)" d="M 1553.48 986.242 C 1556.41 985.975 1557.9 985.52 1560.51 986.86 C 1563.85 992.094 1562.4 1007.56 1562.4 1014.75 C 1559.21 1014.65 1556.01 1014.61 1552.82 1014.63 C 1517.05 1015.11 1520.5 1051.72 1521.23 1076.51 C 1521.5 1086 1521.44 1095.69 1521.56 1105.2 C 1514.85 1105.15 1494.64 1106.45 1489.47 1104.17 L 1488.99 1101.25 L 1488.82 986.975 L 1519.68 986.893 C 1519.96 993.017 1519.97 999.586 1520.09 1005.75 C 1530.32 992.298 1537.17 988.989 1553.48 986.242 z"/>
<path transform="translate(0,0)" fill="rgb(195,36,32)" d="M 842.53 1124.83 C 850.638 1128.53 869.306 1140.7 866.065 1151.52 C 858.746 1160.93 814.534 1164.71 801.827 1168.53 C 795.267 1170.5 784.983 1166.21 784.75 1157.12 C 784.356 1141.81 767.876 1097.44 785.787 1089.85 C 790.841 1088.05 804.6 1099.09 810.058 1102.88 C 821.994 1110.23 831.357 1117.65 842.53 1124.83 z"/>
</svg>